<svg width="73" height="94" viewBox="0 0 73 94" fill="none" xmlns="http://www.w3.org/2000/svg">
<circle cx="36.5" cy="51.5" r="36.5" fill="#C9A5A5" fill-opacity="0.53"/>
<path d="M51.904 59.932C51.904 62.132 51.354 64.2 50.254 66.136C49.198 68.072 47.614 69.7 45.502 71.02C43.434 72.34 40.97 73.132 38.11 73.396V78.742H33.82V73.396C29.684 73 26.34 71.702 23.788 69.502C21.236 67.302 19.96 64.398 19.96 60.79H28.012C28.144 62.506 28.694 63.936 29.662 65.08C30.63 66.18 32.016 66.884 33.82 67.192V52.672C30.872 51.924 28.474 51.176 26.626 50.428C24.778 49.636 23.194 48.404 21.874 46.732C20.598 45.06 19.96 42.772 19.96 39.868C19.96 36.216 21.236 33.202 23.788 30.826C26.34 28.406 29.684 26.998 33.82 26.602V21.256H38.11V26.602C41.982 26.954 45.084 28.186 47.416 30.298C49.792 32.366 51.134 35.226 51.442 38.878H43.39C43.258 37.514 42.73 36.304 41.806 35.248C40.882 34.148 39.65 33.4 38.11 33.004V47.26C41.058 47.964 43.456 48.712 45.304 49.504C47.152 50.252 48.714 51.462 49.99 53.134C51.266 54.762 51.904 57.028 51.904 59.932ZM27.616 39.472C27.616 41.276 28.144 42.684 29.2 43.696C30.3 44.708 31.84 45.522 33.82 46.138V32.806C31.928 33.026 30.41 33.708 29.266 34.852C28.166 35.996 27.616 37.536 27.616 39.472ZM38.11 67.192C40.046 66.884 41.564 66.114 42.664 64.882C43.764 63.606 44.314 62.088 44.314 60.328C44.314 58.568 43.764 57.204 42.664 56.236C41.608 55.224 40.09 54.41 38.11 53.794V67.192Z" fill="black"/>
</svg>
